<?xml version="1.0" encoding="utf-8"?>
<svg viewBox="0 0 500 500" xmlns="http://www.w3.org/2000/svg" xmlns:bx="https://boxy-svg.com">
  <defs>
    <clipPath id="clip-0">
      <circle style="fill: rgb(216, 216, 216); mix-blend-mode: multiply;" cx="246.456" cy="247.764" r="226.918"/>
    </clipPath>
    <filter id="drop-shadow-filter-0" x="-500%" y="-500%" width="1000%" height="1000%" bx:preset="drop-shadow 1 20 20 0 0.5 rgba(0,0,0,0.3)">
      <feGaussianBlur in="SourceAlpha" stdDeviation="0"/>
      <feOffset dx="20" dy="20"/>
      <feComponentTransfer result="offsetblur">
        <feFuncA id="spread-ctrl" type="linear" slope="1"/>
      </feComponentTransfer>
      <feFlood flood-color="rgba(0,0,0,0.3)" x="10" y="10"/>
      <feComposite in2="offsetblur" operator="in"/>
      <feMerge>
        <feMergeNode/>
        <feMergeNode in="SourceGraphic"/>
      </feMerge>
    </filter>
  </defs>
  <g transform="matrix(0.960812, 0, 0, 0.960812, 34.770283, -2.510106)" style="filter: none; clip-path: url(#clip-0);">
    <path d="M 459.718 465.894 L 459.718 472.592 L 23.197 472.592 L 23.197 465.894 C 23.183 456.256 24.345 446.651 26.66 437.293 L 33.657 408.921 C 41.777 379.324 68.98 359.035 99.662 359.698 L 383.252 359.698 C 413.935 359.035 441.138 379.324 449.257 408.921 L 456.254 437.293 C 458.569 446.651 459.731 456.256 459.718 465.894 Z M 459.718 465.894" fill="#4482c3" style="stroke-width: 9px;"/>
    <path d="M 399.508 472.592 L 83.407 472.592 L 106.74 359.698 L 108.921 349.16 C 111.518 341.381 119.116 336.402 127.285 337.121 L 355.63 337.121 C 363.819 336.402 371.436 341.374 374.071 349.16 L 376.252 359.698 Z M 399.508 472.592" fill="#3b97d3" style="stroke-width: 9px;"/>
    <path d="M 331.771 434.962 L 309.194 472.592 L 173.72 472.592 L 151.144 434.962 L 181.248 404.854 L 301.668 404.854 Z M 331.771 434.962" fill="#f0c419" style="stroke-width: 9px;"/>
    <path d="M 354.351 246.805 L 354.351 179.067 C 354.388 173.698 353.782 168.34 352.546 163.114 C 347.351 142.416 328.537 129.322 308.891 123.6 C 295.373 119.883 281.358 118.284 267.348 118.86 C 257.376 118.527 248.132 124.059 243.715 133.008 C 241.458 137.9 241.458 156.491 226.404 164.017 C 206.612 173.952 196.301 164.017 196.301 164.017 C 196.301 164.017 210.072 144.371 197.656 128.116 L 197.656 128.043 C 197.203 127.44 196.75 126.913 196.301 126.384 C 190.436 119.6 181.407 116.446 172.591 118.108 C 161.195 120.249 151.001 126.551 143.993 135.792 C 134.322 148.178 128.91 163.358 128.564 179.067 L 128.564 246.805 C 98.46 239.277 98.46 171.544 98.46 118.86 C 98.46 66.173 158.67 36.071 241.458 36.071 C 324.248 36.071 326.655 67.003 346.825 73.7 C 391.981 88.754 399.508 179.067 354.351 246.805 Z M 354.351 246.805" fill="#2c2f38" style="stroke-width: 9px;"/>
    <path d="M 213.236 70.616 C 213.242 72.615 212.449 74.533 211.038 75.945 C 209.626 77.357 207.707 78.15 205.709 78.143 C 196.853 77.467 188.534 82.442 184.934 90.559 C 181.55 98.765 182.679 112.237 195.997 125.558 C 196.727 126.254 197.293 127.1 197.656 128.043 C 197.203 127.44 196.75 126.913 196.301 126.384 C 190.436 119.6 181.407 116.446 172.591 118.108 C 167.376 107.717 166.8 95.601 171.013 84.764 C 176.931 71.016 190.756 62.38 205.709 63.09 C 209.858 63.103 213.222 66.463 213.236 70.616 Z M 213.236 70.616" fill="#5e5f62" style="stroke-width: 9px;"/>
    <path d="M 181.248 299.487 L 301.668 299.487 L 301.668 337.121 L 181.248 337.121 Z M 181.248 299.487" fill="#f9c795" style="stroke-width: 9px;"/>
    <path d="M 354.351 179.067 L 354.351 246.805 C 354.361 260.782 348.813 274.187 338.932 284.068 C 329.05 293.952 315.642 299.498 301.668 299.487 L 181.248 299.487 C 167.273 299.498 153.864 293.952 143.983 284.068 C 134.102 274.187 128.554 260.782 128.564 246.805 L 128.564 179.067 C 128.91 163.358 134.322 148.178 143.993 135.792 C 156.109 120.063 181.098 109.299 196.301 126.384 C 211.051 142.942 196.301 164.017 196.301 164.017 C 196.301 164.017 206.612 173.952 226.404 164.017 C 241.458 156.491 241.458 137.9 243.715 133.008 C 248.132 124.059 257.376 118.527 267.348 118.86 C 281.358 118.284 295.373 119.883 308.891 123.6 C 328.537 129.322 347.351 142.416 352.546 163.114 C 353.782 168.34 354.388 173.698 354.351 179.067 Z M 354.351 179.067" fill="#fdd7ad" style="stroke-width: 9px;"/>
    <path d="M 241.374 382.182 C 239.416 382.205 237.531 381.445 236.135 380.073 C 228.622 375.784 219.967 373.925 211.354 374.752 L 158.67 374.752 C 154.511 374.752 151.144 371.381 151.144 367.225 C 151.144 363.069 154.511 359.698 158.67 359.698 L 211.354 359.698 C 221.728 359.225 232.062 361.294 241.458 365.719 C 250.852 361.294 261.186 359.225 271.561 359.698 L 324.248 359.698 C 328.404 359.698 331.771 363.069 331.771 367.225 C 331.771 371.381 328.404 374.752 324.248 374.752 L 271.561 374.752 C 253.164 374.752 246.649 380.197 246.586 380.257 C 245.134 381.499 243.286 382.185 241.374 382.182 Z M 241.374 382.182" fill="#285680" style="stroke-width: 9px;"/>
    <path d="M 338.245 438.798 L 318 472.592 L 301.668 472.592 C 301.677 471.243 302.04 469.921 302.72 468.755 L 322.289 436.164 L 298.581 412.382 L 184.335 412.382 L 160.625 436.164 L 180.195 468.755 C 180.874 469.921 181.237 471.243 181.248 472.592 L 164.915 472.592 L 144.669 438.798 C 142.938 435.834 143.401 432.074 145.798 429.616 L 175.905 399.513 C 177.34 398.124 179.253 397.345 181.248 397.328 L 301.668 397.328 C 303.663 397.345 305.578 398.124 307.009 399.513 L 337.116 429.616 C 339.514 432.074 339.977 435.834 338.245 438.798 Z M 338.245 438.798" fill="#e64c3c" style="stroke-width: 9px;"/>
    <path d="M 295.27 404.854 L 295.27 428.833 C 295.28 430.122 294.627 431.325 293.541 432.018 C 292.456 432.71 291.09 432.797 289.928 432.244 C 275.587 425.386 235.709 409.168 211.354 427.435 C 187.721 445.156 240.029 465.291 277.132 472.592 L 181.248 472.592 C 169.774 450.578 172.748 423.815 188.774 404.854 C 191.032 402.071 193.516 407.113 195.997 404.854 C 199.005 402.127 202.199 399.609 205.556 397.328 L 257.114 397.328 Z M 295.27 404.854" fill="#e64c3c" style="stroke-width: 9px;"/>
    <g fill="#2c2f38" transform="matrix(0.852581, 0, 0, 0.852581, 23.196293, 36.070484)" style="">
      <path d="m301.242188 237.792969c-4.867188 15.023437-27.769532 22.40625-40.171876 24.578125-12.425781 2.175781-35.441406 4.199218-45.121093-8.277344 14.464843.871094 28.980469.101562 43.273437-2.289062 14.480469-3.109376 28.570313-7.808594 42.019532-14.011719zm0 0" style="stroke-width: 10.5562px;"/>
      <path d="m231.214844 165.207031c-7.65625-4.613281-15.972656-8.03125-24.664063-10.132812-11.617187-3.160157-23.898437-2.910157-35.378906.710937 4.105469-14.941406 39.851563-11.179687 56.292969-3.972656 2.664062.863281 4.714844 3 5.46875 5.691406.753906 2.695313.109375 5.585938-1.71875 7.703125zm0 0" style="stroke-width: 10.5562px;"/>
      <path d="m229.515625 182.566406c0-10.453125-7.902344-18.925781-17.652344-18.925781s-17.65625 8.472656-17.65625 18.925781c0 10.449219 7.90625 18.921875 17.65625 18.921875s17.652344-8.472656 17.652344-18.921875zm0 0" style="stroke-width: 10.5562px;"/>
    </g>
    <path d="M 208.047 177.722 C 204.161 176.243 199.814 178.195 198.335 182.081 C 196.857 185.968 198.808 190.314 202.695 191.793 C 206.581 193.269 210.928 191.316 212.406 187.434 C 213.882 183.547 211.93 179.201 208.047 177.722 Z M 208.047 177.722" fill="#fff" style="stroke-width: 9px;"/>
    <path d="M 261.782 178.501 C 267.121 171.474 274.534 166.306 282.978 163.734 C 294.327 160.707 306.403 164.54 313.93 173.562 C 313.814 173.449 314.046 171.051 314.003 170.675 C 313.88 169.699 313.617 168.747 313.22 167.847 C 312.334 165.925 311.033 164.224 309.411 162.868 C 305.371 159.588 300.562 157.387 295.436 156.477 C 288.626 154.939 281.526 155.289 274.904 157.497 C 270.914 158.872 267.245 161.037 264.107 163.857 C 261.343 166.388 257.25 171.044 259.029 175.288 C 259.851 176.436 260.774 177.512 261.782 178.501 Z M 261.782 178.501" fill="#2c2f38" style="stroke-width: 9px;"/>
    <path d="M 294.141 191.723 C 294.141 182.811 287.403 175.587 279.087 175.587 C 270.775 175.587 264.037 182.811 264.037 191.723 C 264.037 200.631 270.775 207.855 279.087 207.855 C 287.403 207.855 294.141 200.631 294.141 191.723 Z M 294.141 191.723" fill="#2c2f38" style="stroke-width: 9px;"/>
    <path d="M 284.58 182.081 C 283.1 178.198 278.755 176.247 274.868 177.722 C 270.984 179.201 269.033 183.547 270.509 187.434 C 271.987 191.316 276.337 193.269 280.219 191.793 C 284.106 190.314 286.058 185.968 284.58 182.081 Z M 284.58 182.081" fill="#fff" style="stroke-width: 9px;"/>
  </g>
  <path d="M 280.449 291.93 m -229.533 0 a 229.533 229.533 0 1 0 459.066 0 a 229.533 229.533 0 1 0 -459.066 0 Z M 280.449 291.93 m -202.187 0 a 202.187 202.187 0 0 1 404.374 0 a 202.187 202.187 0 0 1 -404.374 0 Z" style="stroke-width: 0px; fill: rgb(255, 255, 255); filter: url(#drop-shadow-filter-0);" transform="matrix(-0.683443, 0.730004, -0.730004, -0.683443, 673.377808, 239.39299)" bx:shape="ring 280.449 291.93 202.187 202.187 229.533 229.533 1@299f6bce"/>
</svg>